<svg width="60" height="60" viewBox="0 0 60 60" fill="none" xmlns="http://www.w3.org/2000/svg">
<g clip-path="url(#clip0_412_2440)">
<path d="M25.5777 40.6863C25.5777 40.6863 33.5458 39.3915 36.3347 37.3415C39.1235 35.2914 59.8406 34.3203 59.8406 40.6863C59.8406 47.0523 36.0159 49.8576 36.0159 49.8576L23.506 48.8865L25.5777 40.6863Z" fill="#FBBEBE"/>
<path opacity="0.1" d="M25.5777 40.6863C25.5777 40.6863 33.5458 39.3915 36.3347 37.3415C39.1235 35.2914 59.8406 34.3203 59.8406 40.6863C59.8406 47.0523 36.0159 49.8576 36.0159 49.8576L23.506 48.8865L25.5777 40.6863Z" fill="black"/>
<path d="M27.8884 39.4994L26.2151 46.0812L0 46.5128V36.802C0 36.802 10.0398 33.673 18.008 40.3626C18.008 40.3626 27.4104 38.852 27.8884 39.4994Z" fill="#22AA64"/>
<path opacity="0.1" d="M27.8884 39.4888L26.2151 46.0706L0 46.5022V36.7914C0 36.7914 10.0398 33.6623 18.008 40.352C18.008 40.352 27.4104 38.8414 27.8884 39.4888Z" fill="black"/>
<path d="M57.8604 36.748C57.8604 37.1158 57.2514 37.3888 57.1915 37.7435C57.1321 38.0954 57.4939 38.6304 57.3794 38.9664C57.2611 39.31 57.1212 39.6393 56.9615 39.9506C56.8115 40.2415 56.3481 40.199 56.1582 40.4717C55.9722 40.7194 55.7751 40.9514 55.5682 41.1665C55.3666 41.3935 55.0935 41.4411 54.8642 41.6501C54.6463 41.8488 54.6726 42.5777 54.4315 42.7587C54.2011 42.9316 53.8485 42.7925 53.5985 42.9479C53.3587 43.0971 53.2322 43.6367 52.9757 43.7686C52.7284 43.8959 52.4223 43.8411 52.1608 43.9513C51.9077 44.058 51.6246 44.0407 51.3594 44.1305C51.1019 44.2177 50.9052 44.7404 50.6373 44.8108C50.3763 44.8795 50.0705 44.6964 49.8006 44.7484C49.5371 44.7992 49.2306 44.3475 48.9594 44.3817C48.6941 44.4152 48.444 44.6242 48.1723 44.6411C47.9058 44.6577 47.6424 44.8166 47.3705 44.8166C47.0988 44.8166 46.8183 45.1619 46.5519 45.1453C46.2801 45.1284 46.0341 44.6051 45.7687 44.5716C45.4976 44.5374 45.1742 45.0841 44.9106 45.0333C44.6408 44.9813 44.427 44.4462 44.1661 44.3776C43.8981 44.3071 43.552 44.6895 43.2945 44.6023C43.0293 44.5125 42.8718 43.89 42.6187 43.7833C42.3573 43.6731 42.0332 43.8223 41.7858 43.6951C41.5293 43.5631 41.2169 43.5843 40.977 43.4351C40.7271 43.2797 40.5477 42.9119 40.3173 42.739C40.0762 42.558 39.965 42.1092 39.747 41.9105C39.5178 41.7015 39.1685 41.7282 38.9669 41.5011C38.754 41.2614 38.3553 41.2489 38.1757 40.991C37.9857 40.7183 37.9088 40.2603 37.7588 39.9694C37.6009 39.6631 37.9109 39.0155 37.8006 38.6917C37.6862 38.3557 37.2077 38.2192 37.1483 37.8675C37.0871 37.5 37.0556 37.1247 37.0546 36.748C37.0546 36.3803 37.4638 36.0993 37.5237 35.7445C37.5831 35.3927 37.2819 34.8873 37.3963 34.5513C37.5067 34.2275 37.4926 33.7298 37.6506 33.4234C37.8006 33.1326 38.1749 33.0186 38.3649 32.7459C38.5445 32.488 38.866 32.4161 39.0788 32.1764C39.2804 31.9494 39.2547 31.2647 39.484 31.0558C39.7019 30.857 40.0063 30.7664 40.2474 30.5854C40.4777 30.4125 40.8038 30.4416 41.0537 30.2862C41.2936 30.137 41.6693 30.431 41.9258 30.2991C42.1731 30.1718 42.3737 29.8937 42.6352 29.7835C42.8882 29.6768 43.0072 28.8633 43.2723 28.7735C43.5298 28.6862 43.8467 28.831 44.1146 28.7605C44.3756 28.6919 44.7267 29.3337 44.9966 29.2817C45.2602 29.2309 45.4573 28.3741 45.7284 28.3399C45.9937 28.3064 46.2929 28.7502 46.5647 28.7333C46.8312 28.7168 47.0987 28.9768 47.3705 28.9768C47.6423 28.9768 47.9131 28.6199 48.1795 28.6365C48.4513 28.6534 48.6909 29.125 48.9563 29.1585C49.2274 29.1926 49.5602 28.4753 49.8238 28.5261C50.0937 28.5781 50.3022 29.1326 50.5632 29.2013C50.8311 29.2718 51.1667 28.9275 51.4243 29.0147C51.6895 29.1045 51.8491 29.6939 52.1022 29.8006C52.3636 29.9108 52.5247 30.3266 52.772 30.4539C53.0285 30.5858 53.505 29.9684 53.7449 30.1176C53.9948 30.273 54.2107 30.542 54.4411 30.7149C54.6822 30.8959 55.0655 30.8049 55.2834 31.0036C55.5127 31.2126 55.5691 31.7737 55.7707 32.0007C55.9835 32.2404 56.3346 32.3126 56.5142 32.5705C56.7042 32.8433 56.7306 33.332 56.8806 33.6228C57.0385 33.9292 57.0336 34.3536 57.1439 34.6773C57.2583 35.0133 57.5638 35.2674 57.6232 35.6192C57.6831 35.9739 57.8604 36.3804 57.8604 36.748Z" fill="#3F3D56"/>
<path d="M29.1633 43.4917C29.1633 43.4917 38.1673 37.2336 43.984 39.6073C49.8007 41.9811 57.9282 37.881 58.8844 39.2836C59.8406 40.6863 61.1952 55.792 49.7211 56.6552C38.247 57.5184 28.4462 54.0656 28.4462 54.0656L29.1633 43.4917Z" fill="#FBBEBE"/>
<path d="M27.0429 42.8252C27.0429 42.8252 30.5976 42.5205 30.4382 44.2469C30.2789 45.9733 30.1195 59.3526 29.1633 59.6763C28.2072 60 20.6375 60 17.5299 60H0V39.3146C0 39.3146 12.4303 38.3125 18.6454 42.5206C18.6454 42.5206 26.1177 42.3745 27.0429 42.8252Z" fill="#22AA64"/>
<path d="M43.6957 10.4703C43.3561 10.4963 43.0285 10.6499 42.7496 10.9139C42.4708 11.1778 42.2519 11.5418 42.1172 11.9648C41.7225 13.2568 42.2307 14.7744 42.9936 15.7165C43.7566 16.6586 44.7366 17.1971 45.627 17.9049C46.823 18.8556 47.8976 20.1754 48.4961 21.8695C49.0945 23.5636 49.1581 25.6621 48.4547 27.2805C47.8018 28.7827 46.6147 29.6818 45.4824 30.511" stroke="#3F3D56" stroke-miterlimit="10"/>
<path d="M46.883 2.59381C46.5433 2.61979 46.2157 2.77338 45.9369 3.03735C45.6581 3.30132 45.4391 3.66524 45.3045 4.0883C44.9098 5.38025 45.418 6.89783 46.1809 7.83993C46.9438 8.78204 47.9238 9.32054 48.8142 10.0284C50.0102 10.9791 51.0849 12.2988 51.6833 13.9929C52.2817 15.687 52.3454 17.7855 51.642 19.404C50.9891 20.9062 49.8019 21.8053 48.6697 22.6344" stroke="#3F3D56" stroke-miterlimit="10"/>
<path d="M57.3624 4.40536C57.082 4.14435 56.7536 3.99423 56.4138 3.97183C56.074 3.94944 55.7363 4.05567 55.4386 4.27859C54.5424 4.97298 54.2582 6.59424 54.4355 7.9716C54.6129 9.34896 55.1443 10.5871 55.5284 11.885C56.0443 13.6281 56.2974 15.5625 56.0047 17.3982C55.712 19.2338 54.8136 20.9459 53.5258 21.6425C52.3304 22.2892 50.9852 22.016 49.7151 21.733" stroke="#3F3D56" stroke-miterlimit="10"/>
<path d="M48.1274 20.6882C49.1836 20.6882 50.0398 20.1251 50.0398 19.4304C50.0398 18.7358 49.1836 18.1727 48.1274 18.1727C47.0713 18.1727 46.2151 18.7358 46.2151 19.4304C46.2151 20.1251 47.0713 20.6882 48.1274 20.6882Z" fill="#57B894"/>
<path d="M47.8884 20.4724C48.9446 20.4724 49.8008 19.9093 49.8008 19.2147C49.8008 18.52 48.9446 17.9569 47.8884 17.9569C46.8323 17.9569 45.9761 18.52 45.9761 19.2147C45.9761 19.9093 46.8323 20.4724 47.8884 20.4724Z" stroke="#3F3D56" stroke-miterlimit="10"/>
<path d="M52.2709 19.6092C53.327 19.6092 54.1832 19.0461 54.1832 18.3515C54.1832 17.6568 53.327 17.0937 52.2709 17.0937C51.2147 17.0937 50.3585 17.6568 50.3585 18.3515C50.3585 19.0461 51.2147 19.6092 52.2709 19.6092Z" fill="#57B894"/>
<path d="M52.0319 19.3935C53.088 19.3935 53.9442 18.8303 53.9442 18.1357C53.9442 17.441 53.088 16.8779 52.0319 16.8779C50.9757 16.8779 50.1195 17.441 50.1195 18.1357C50.1195 18.8303 50.9757 19.3935 52.0319 19.3935Z" stroke="#3F3D56" stroke-miterlimit="10"/>
<path d="M52.9083 24.3567C53.9645 24.3567 54.8207 23.7936 54.8207 23.099C54.8207 22.4043 53.9645 21.8412 52.9083 21.8412C51.8522 21.8412 50.996 22.4043 50.996 23.099C50.996 23.7936 51.8522 24.3567 52.9083 24.3567Z" fill="#57B894"/>
<path d="M52.6693 24.141C53.7255 24.141 54.5817 23.5778 54.5817 22.8832C54.5817 22.1885 53.7255 21.6254 52.6693 21.6254C51.6131 21.6254 50.757 22.1885 50.757 22.8832C50.757 23.5778 51.6131 24.141 52.6693 24.141Z" stroke="#3F3D56" stroke-miterlimit="10"/>
<path d="M52.51 12.488C53.5662 12.488 54.4224 11.9249 54.4224 11.2302C54.4224 10.5356 53.5662 9.97244 52.51 9.97244C51.4538 9.97244 50.5977 10.5356 50.5977 11.2302C50.5977 11.9249 51.4538 12.488 52.51 12.488Z" fill="#57B894"/>
<path d="M52.2709 12.2722C53.327 12.2722 54.1832 11.7091 54.1832 11.0144C54.1832 10.3198 53.327 9.75665 52.2709 9.75665C51.2147 9.75665 50.3585 10.3198 50.3585 11.0144C50.3585 11.7091 51.2147 12.2722 52.2709 12.2722Z" stroke="#3F3D56" stroke-miterlimit="10"/>
<path d="M47.7291 11.7327C48.7853 11.7327 49.6415 11.1696 49.6415 10.4749C49.6415 9.78029 48.7853 9.21716 47.7291 9.21716C46.673 9.21716 45.8168 9.78029 45.8168 10.4749C45.8168 11.1696 46.673 11.7327 47.7291 11.7327Z" fill="#57B894"/>
<path d="M47.49 11.5169C48.5461 11.5169 49.4023 10.9538 49.4023 10.2592C49.4023 9.5645 48.5461 9.00137 47.49 9.00137C46.4338 9.00137 45.5776 9.5645 45.5776 10.2592C45.5776 10.9538 46.4338 11.5169 47.49 11.5169Z" stroke="#3F3D56" stroke-miterlimit="10"/>
<path d="M49.8805 9.03527C50.9367 9.03527 51.7928 8.47215 51.7928 7.77749C51.7928 7.08284 50.9367 6.51971 49.8805 6.51971C48.8243 6.51971 47.9681 7.08284 47.9681 7.77749C47.9681 8.47215 48.8243 9.03527 49.8805 9.03527Z" fill="#57B894"/>
<path d="M49.6415 8.81948C50.6976 8.81948 51.5538 8.25636 51.5538 7.5617C51.5538 6.86705 50.6976 6.30392 49.6415 6.30392C48.5853 6.30392 47.7291 6.86705 47.7291 7.5617C47.7291 8.25636 48.5853 8.81948 49.6415 8.81948Z" stroke="#3F3D56" stroke-miterlimit="10"/>
<path d="M54.5817 9.57476C55.6378 9.57476 56.494 9.01164 56.494 8.31698C56.494 7.62233 55.6378 7.0592 54.5817 7.0592C53.5255 7.0592 52.6693 7.62233 52.6693 8.31698C52.6693 9.01164 53.5255 9.57476 54.5817 9.57476Z" fill="#57B894"/>
<path d="M54.3426 9.35897C55.3988 9.35897 56.255 8.79585 56.255 8.10119C56.255 7.40654 55.3988 6.84341 54.3426 6.84341C53.2865 6.84341 52.4303 7.40654 52.4303 8.10119C52.4303 8.79585 53.2865 9.35897 54.3426 9.35897Z" stroke="#3F3D56" stroke-miterlimit="10"/>
<path d="M58.0876 13.1354C59.1438 13.1354 60 12.5723 60 11.8776C60 11.183 59.1438 10.6198 58.0876 10.6198C57.0315 10.6198 56.1753 11.183 56.1753 11.8776C56.1753 12.5723 57.0315 13.1354 58.0876 13.1354Z" fill="#57B894"/>
<path d="M57.8486 12.9196C58.9048 12.9196 59.761 12.3565 59.761 11.6618C59.761 10.9671 58.9048 10.404 57.8486 10.404C56.7925 10.404 55.9363 10.9671 55.9363 11.6618C55.9363 12.3565 56.7925 12.9196 57.8486 12.9196Z" stroke="#3F3D56" stroke-miterlimit="10"/>
<path d="M45.7371 6.87732C46.7932 6.87732 47.6494 6.31419 47.6494 5.61954C47.6494 4.92488 46.7932 4.36176 45.7371 4.36176C44.6809 4.36176 43.8247 4.92488 43.8247 5.61954C43.8247 6.31419 44.6809 6.87732 45.7371 6.87732Z" fill="#57B894"/>
<path d="M45.498 6.66153C46.5542 6.66153 47.4104 6.0984 47.4104 5.40375C47.4104 4.70909 46.5542 4.14597 45.498 4.14597C44.4419 4.14597 43.5857 4.70909 43.5857 5.40375C43.5857 6.0984 44.4419 6.66153 45.498 6.66153Z" stroke="#3F3D56" stroke-miterlimit="10"/>
<path d="M46.9322 2.77722C47.9884 2.77722 48.8446 2.21409 48.8446 1.51944C48.8446 0.824785 47.9884 0.261658 46.9322 0.261658C45.8761 0.261658 45.0199 0.824785 45.0199 1.51944C45.0199 2.21409 45.8761 2.77722 46.9322 2.77722Z" fill="#57B894"/>
<path d="M46.6932 2.5614C47.7494 2.5614 48.6056 1.99827 48.6056 1.30362C48.6056 0.608965 47.7494 0.0458374 46.6932 0.0458374C45.6371 0.0458374 44.7809 0.608965 44.7809 1.30362C44.7809 1.99827 45.6371 2.5614 46.6932 2.5614Z" stroke="#3F3D56" stroke-miterlimit="10"/>
<path d="M58.0079 5.79834C59.0641 5.79834 59.9203 5.23521 59.9203 4.54056C59.9203 3.8459 59.0641 3.28278 58.0079 3.28278C56.9518 3.28278 56.0956 3.8459 56.0956 4.54056C56.0956 5.23521 56.9518 5.79834 58.0079 5.79834Z" fill="#57B894"/>
<path d="M57.7689 5.58255C58.8251 5.58255 59.6813 5.01942 59.6813 4.32477C59.6813 3.63011 58.8251 3.06699 57.7689 3.06699C56.7128 3.06699 55.8566 3.63011 55.8566 4.32477C55.8566 5.01942 56.7128 5.58255 57.7689 5.58255Z" stroke="#3F3D56" stroke-miterlimit="10"/>
<path d="M40.3984 15.7249C41.4546 15.7249 42.3108 15.1618 42.3108 14.4672C42.3108 13.7725 41.4546 13.2094 40.3984 13.2094C39.3423 13.2094 38.4861 13.7725 38.4861 14.4672C38.4861 15.1618 39.3423 15.7249 40.3984 15.7249Z" fill="#57B894"/>
<path d="M40.1594 15.5092C41.2156 15.5092 42.0718 14.946 42.0718 14.2514C42.0718 13.5567 41.2156 12.9936 40.1594 12.9936C39.1033 12.9936 38.2471 13.5567 38.2471 14.2514C38.2471 14.946 39.1033 15.5092 40.1594 15.5092Z" stroke="#3F3D56" stroke-miterlimit="10"/>
<path d="M47.012 15.0775C48.0681 15.0775 48.9243 14.5144 48.9243 13.8198C48.9243 13.1251 48.0681 12.562 47.012 12.562C45.9558 12.562 45.0996 13.1251 45.0996 13.8198C45.0996 14.5144 45.9558 15.0775 47.012 15.0775Z" fill="#57B894"/>
<path d="M46.7729 14.8617C47.8291 14.8617 48.6853 14.2986 48.6853 13.604C48.6853 12.9093 47.8291 12.3462 46.7729 12.3462C45.7168 12.3462 44.8606 12.9093 44.8606 13.604C44.8606 14.2986 45.7168 14.8617 46.7729 14.8617Z" stroke="#3F3D56" stroke-miterlimit="10"/>
<path d="M55.6973 16.0486C56.7534 16.0486 57.6096 15.4855 57.6096 14.7909C57.6096 14.0962 56.7534 13.5331 55.6973 13.5331C54.6411 13.5331 53.7849 14.0962 53.7849 14.7909C53.7849 15.4855 54.6411 16.0486 55.6973 16.0486Z" fill="#57B894"/>
<path d="M55.4581 15.8328C56.5143 15.8328 57.3705 15.2697 57.3705 14.575C57.3705 13.8804 56.5143 13.3173 55.4581 13.3173C54.402 13.3173 53.5458 13.8804 53.5458 14.575C53.5458 15.2697 54.402 15.8328 55.4581 15.8328Z" stroke="#3F3D56" stroke-miterlimit="10"/>
<path d="M51.0757 16.4802C52.1318 16.4802 52.988 15.9171 52.988 15.2224C52.988 14.5278 52.1318 13.9647 51.0757 13.9647C50.0195 13.9647 49.1633 14.5278 49.1633 15.2224C49.1633 15.9171 50.0195 16.4802 51.0757 16.4802Z" fill="#57B894"/>
<path d="M50.8367 16.2644C51.8928 16.2644 52.749 15.7013 52.749 15.0067C52.749 14.312 51.8928 13.7489 50.8367 13.7489C49.7805 13.7489 48.9243 14.312 48.9243 15.0067C48.9243 15.7013 49.7805 16.2644 50.8367 16.2644Z" stroke="#3F3D56" stroke-miterlimit="10"/>
<path d="M51.3944 5.69046C52.4506 5.69046 53.3068 5.12733 53.3068 4.43268C53.3068 3.73802 52.4506 3.1749 51.3944 3.1749C50.3382 3.1749 49.4821 3.73802 49.4821 4.43268C49.4821 5.12733 50.3382 5.69046 51.3944 5.69046Z" fill="#57B894"/>
<path d="M51.1554 5.47464C52.2116 5.47464 53.0677 4.91151 53.0677 4.21686C53.0677 3.5222 52.2116 2.95908 51.1554 2.95908C50.0992 2.95908 49.243 3.5222 49.243 4.21686C49.243 4.91151 50.0992 5.47464 51.1554 5.47464Z" stroke="#3F3D56" stroke-miterlimit="10"/>
<path d="M43.1873 12.3801C44.2434 12.3801 45.0996 11.817 45.0996 11.1223C45.0996 10.4277 44.2434 9.86453 43.1873 9.86453C42.1311 9.86453 41.2749 10.4277 41.2749 11.1223C41.2749 11.817 42.1311 12.3801 43.1873 12.3801Z" fill="#57B894"/>
<path d="M42.9482 12.1643C44.0044 12.1643 44.8606 11.6012 44.8606 10.9065C44.8606 10.2119 44.0044 9.64874 42.9482 9.64874C41.8921 9.64874 41.0359 10.2119 41.0359 10.9065C41.0359 11.6012 41.8921 12.1643 42.9482 12.1643Z" stroke="#3F3D56" stroke-miterlimit="10"/>
<path d="M44.3027 17.2355C45.3589 17.2355 46.2151 16.6724 46.2151 15.9777C46.2151 15.2831 45.3589 14.7199 44.3027 14.7199C43.2466 14.7199 42.3904 15.2831 42.3904 15.9777C42.3904 16.6724 43.2466 17.2355 44.3027 17.2355Z" fill="#57B894"/>
<path d="M44.0637 17.0197C45.1199 17.0197 45.9761 16.4566 45.9761 15.7619C45.9761 15.0673 45.1199 14.5042 44.0637 14.5042C43.0076 14.5042 42.1514 15.0673 42.1514 15.7619C42.1514 16.4566 43.0076 17.0197 44.0637 17.0197Z" stroke="#3F3D56" stroke-miterlimit="10"/>
<g opacity="0.3">
<path d="M44.3473 24.5659C44.6173 23.9118 44.6665 23.2533 44.4574 23.095C44.2482 22.9367 43.8598 23.3386 43.5899 23.9926C43.3199 24.6466 43.2706 25.3052 43.4798 25.4635C43.689 25.6218 44.0774 25.2199 44.3473 24.5659Z" fill="#57B894"/>
<path d="M44.2212 24.6647C44.4912 24.0107 44.5404 23.3522 44.3313 23.1939C44.1221 23.0356 43.7337 23.4374 43.4638 24.0915C43.1938 24.7455 43.1445 25.404 43.3537 25.5623C43.5629 25.7206 43.9513 25.3188 44.2212 24.6647Z" stroke="#3F3D56" stroke-miterlimit="10"/>
</g>
<g opacity="0.3">
<path d="M54.3154 27.7012C54.4752 27.4595 54.2705 26.8584 53.8582 26.3587C53.4459 25.8591 52.9821 25.65 52.8223 25.8918C52.6625 26.1336 52.8672 26.7346 53.2795 27.2343C53.6918 27.734 54.1556 27.943 54.3154 27.7012Z" fill="#57B894"/>
<path d="M54.2717 27.513C54.4315 27.2713 54.2268 26.6702 53.8145 26.1705C53.4022 25.6708 52.9384 25.4618 52.7786 25.7036C52.6188 25.9454 52.8235 26.5464 53.2358 27.0461C53.6481 27.5458 54.1119 27.7548 54.2717 27.513Z" stroke="#3F3D56" stroke-miterlimit="10"/>
</g>
<g opacity="0.3">
<path d="M45.3911 20.9037C45.5509 20.6619 45.3462 20.0608 44.9339 19.5612C44.5216 19.0615 44.0578 18.8524 43.898 19.0942C43.7382 19.336 43.9429 19.9371 44.3552 20.4367C44.7675 20.9364 45.2313 21.1455 45.3911 20.9037Z" fill="#57B894"/>
<path d="M45.3474 20.7155C45.5072 20.4737 45.3025 19.8726 44.8902 19.373C44.4779 18.8733 44.0141 18.6642 43.8543 18.906C43.6945 19.1478 43.8992 19.7489 44.3115 20.2485C44.7238 20.7482 45.1876 20.9573 45.3474 20.7155Z" stroke="#3F3D56" stroke-miterlimit="10"/>
</g>
</g>
<defs>
<clipPath id="clip0_412_2440">
<rect width="60" height="60" fill="white"/>
</clipPath>
</defs>
</svg>
