<svg width="60" height="60" viewBox="0 0 60 60" fill="none" xmlns="http://www.w3.org/2000/svg">
<g clip-path="url(#clip0_438_2416)">
<path d="M34.1809 53.0806C33.766 52.36 33.2044 51.8328 32.4983 51.6355C31.8826 51.4634 31.2495 51.4927 30.6236 51.4987L22.7098 51.5744C22.032 51.5809 21.3822 52.3092 21.4137 53.182C21.4449 54.0474 21.9833 54.7965 22.7098 54.7895C25.028 54.7674 27.3462 54.7452 29.6644 54.723C30.2109 54.7178 30.7577 54.7056 31.3043 54.7078C31.427 54.7083 31.5492 54.7163 31.6719 54.7181C31.7016 54.7185 31.723 54.7181 31.7382 54.7174C31.742 54.7188 31.7452 54.7201 31.7501 54.7218C31.8141 54.7436 31.8797 54.7586 31.944 54.7793C31.9215 54.7801 31.9858 54.8298 32.018 54.8467C32.0225 54.8575 32.0319 54.8768 32.0477 54.9065C32.0697 54.9577 32.135 55.1133 32.1376 55.1084C32.2356 55.4157 32.3165 55.7311 32.3796 56.0522C32.5302 56.7602 32.5633 56.9082 32.585 57.5725C32.6124 58.4117 33.1615 59.22 33.8811 59.1801C34.5599 59.1424 35.2066 58.4725 35.1772 57.5725C35.1277 56.0559 34.9131 54.3524 34.1809 53.0806Z" fill="#E6E6E6"/>
<path d="M23.175 56.7082C23.0264 55.591 22.8806 54.4731 22.729 53.3565C22.5753 52.2237 22.2613 51.1865 21.5505 50.443C21.3606 50.2444 21.1637 50.059 20.966 49.8741C20.8965 49.8091 20.8271 49.744 20.7584 49.6776C20.7542 49.6736 20.7516 49.6711 20.7481 49.6677C20.7405 49.6596 20.7315 49.65 20.7193 49.6373C20.423 49.3263 20.1368 49.0015 19.8642 48.6563C19.6221 48.3497 19.3905 48.0301 19.1696 47.6973C19.1144 47.6142 19.0598 47.5304 19.0061 47.4458C18.9968 47.4312 18.947 47.3513 18.9141 47.2992C18.8836 47.247 18.8278 47.1528 18.8184 47.1364C18.7556 47.0261 18.6938 46.9149 18.6332 46.8026C18.2204 46.0355 17.8629 45.2247 17.565 44.3796C17.5354 44.2958 17.5066 44.2115 17.4784 44.1267C17.4709 44.1009 17.4611 44.0676 17.4481 44.0234C17.3881 43.8186 17.3282 43.614 17.2733 43.4068C17.1566 42.9667 17.0563 42.52 16.9724 42.0669C16.9309 41.8431 16.8936 41.6182 16.8604 41.3922C16.8432 41.276 16.8272 41.1595 16.8123 41.0428C16.8098 41.0234 16.7953 40.8975 16.7867 40.8263C16.7804 40.7548 16.7686 40.6282 16.767 40.6087C16.7575 40.491 16.7491 40.3733 16.7417 40.2554C16.7252 39.9901 16.714 39.7244 16.7081 39.4583C16.6981 38.9853 16.705 38.5124 16.7286 38.0394C16.7421 37.7737 16.7612 37.5087 16.7848 37.2442C16.7862 37.2279 16.7873 37.215 16.7883 37.2033C16.7898 37.1915 16.7914 37.1781 16.7934 37.1614C16.8108 37.0152 16.8292 36.8692 16.8497 36.7237C16.9275 36.1711 17.0286 35.624 17.1526 35.0846C17.2114 34.8295 17.2752 34.5765 17.344 34.3255C17.3747 34.2141 17.4064 34.1031 17.439 33.9926C17.4369 33.9997 17.5348 33.6896 17.5361 33.6792C17.9245 32.5409 18.5599 31.5032 18.5607 30.2102C18.5613 29.3347 17.9642 28.4961 17.2646 28.5366C16.9158 28.5528 16.5858 28.7364 16.344 29.0486C16.1022 29.3608 15.9676 29.7773 15.9685 30.2102C15.9685 30.2298 15.9684 30.2466 15.9684 30.2629C15.9618 30.2901 15.9564 30.3129 15.9515 30.333C15.8757 30.5372 15.7829 30.7312 15.6998 30.9302C15.4721 31.4752 15.2778 32.0379 15.0932 32.609C14.791 33.5389 14.5597 34.5019 14.4023 35.4854C14.0601 37.6401 14.0336 39.8537 14.3239 42.0201C14.8264 45.8193 16.4836 49.4561 18.7876 51.9006C18.9875 52.1127 19.1924 52.3177 19.3991 52.5186C19.4847 52.6017 19.5709 52.6833 19.6576 52.7643C19.6986 52.8026 19.8684 52.9687 19.7937 52.8882C19.9543 53.0582 20.0219 53.1438 20.0631 53.269C20.0691 53.2979 20.0773 53.3371 20.0883 53.3906C20.1174 53.5318 20.145 53.6727 20.1679 53.8159C20.3685 55.0669 20.5079 56.3389 20.6754 57.5981C20.7905 58.4632 21.6492 59.0263 22.2698 58.767C22.992 58.4652 23.2984 57.6352 23.175 56.7082Z" fill="#E6E6E6"/>
<path d="M34.312 59.953C33.7677 59.9548 33.245 59.6887 32.8587 59.2131C32.4723 58.7375 32.2539 58.0912 32.2512 57.4161V55.5823C30.7032 55.7972 25.4026 55.7474 23.8832 55.4446V57.3427C23.8791 58.0173 23.6602 58.6626 23.2741 59.1378C22.8881 59.613 22.3663 59.8797 21.8223 59.8797C21.2784 59.8797 20.7566 59.613 20.3705 59.1378C19.9845 58.6626 19.7656 58.0173 19.7615 57.3427V53.616C17.7036 52.198 15.988 50.1246 14.7918 47.6098C13.5957 45.0949 12.9622 42.2297 12.9569 39.3098C12.9569 34.3033 14.7863 29.6328 17.976 26.4962C20.0499 24.4498 22.5697 23.2191 25.2118 22.9622C25.5704 22.9273 25.9312 22.9096 26.2842 22.9096C27.5279 22.9096 33.1389 23.1479 34.5468 23.6503L37.7569 19.6995C37.8041 19.6406 37.8644 19.6005 37.93 19.5843C37.9956 19.5681 38.0637 19.5765 38.1255 19.6084C38.1877 19.6391 38.241 19.6925 38.2784 19.7614C38.3158 19.8304 38.3354 19.9118 38.3348 19.9949V20.623L38.9599 19.8552C39.007 19.7963 39.0672 19.7561 39.1328 19.7399C39.1984 19.7236 39.2665 19.732 39.3282 19.764C39.3905 19.7947 39.4439 19.848 39.4813 19.917C39.5187 19.986 39.5384 20.0675 39.5378 20.1506V27.1701C41.1486 28.9712 42.3763 31.2374 43.1121 33.7677C43.848 36.2981 44.0692 39.0145 43.7561 41.6762C43.4431 44.3379 42.6056 46.8628 41.3177 49.027C40.0298 51.1913 38.3313 52.9281 36.3728 54.0835V57.4161C36.3702 58.0912 36.1517 58.7375 35.7654 59.2131C35.379 59.6887 34.8564 59.9548 34.312 59.953ZM32.4132 55.3544V57.4161C32.4173 58.0374 32.6192 58.6315 32.9748 59.069C33.3305 59.5065 33.8111 59.752 34.312 59.752C34.8129 59.752 35.2936 59.5065 35.6492 59.069C36.0049 58.6315 36.2067 58.0374 36.2108 57.4161V53.9565L36.2571 53.9293C38.4546 52.6359 40.3201 50.6125 41.6465 48.0836C43.3367 44.8566 44.0397 40.9857 43.6281 37.1715C43.2165 33.3573 41.7176 29.8519 39.4027 27.2897L39.3758 27.2598V20.1506C39.3764 20.1074 39.3663 20.065 39.3468 20.0292C39.3274 19.9933 39.2996 19.9657 39.2671 19.9501C39.2348 19.933 39.1991 19.9284 39.1647 19.9368C39.1303 19.9453 39.0987 19.9665 39.0742 19.9976L38.1728 21.1049V19.9949C38.1734 19.9517 38.1633 19.9093 38.1439 19.8735C38.1244 19.8376 38.0966 19.81 38.0641 19.7944C38.0318 19.7773 37.996 19.7727 37.9615 19.7813C37.9271 19.7898 37.8955 19.8111 37.8709 19.8423L34.592 23.8776L34.5454 23.8595C33.2367 23.3515 27.5373 23.1106 26.2842 23.1106C25.9354 23.1106 25.5788 23.128 25.2245 23.1625C22.6146 23.4163 20.1254 24.6321 18.0767 26.6536C14.9259 29.752 13.1189 34.365 13.1189 39.3098C13.1243 42.2039 13.7543 45.0433 14.9436 47.5332C16.1329 50.0231 17.8379 52.0727 19.8817 53.469L19.9235 53.4977V57.3428C19.9277 57.964 20.1296 58.558 20.4852 58.9954C20.8409 59.4329 21.3215 59.6783 21.8223 59.6783C22.3232 59.6783 22.8038 59.4329 23.1595 58.9954C23.5151 58.558 23.717 57.964 23.7212 57.3428V55.2041L23.8171 55.2265C25.1826 55.5451 30.9321 55.5954 32.3217 55.3693L32.4132 55.3544Z" fill="#3F3D56"/>
<path d="M23.3299 11.9681L14.3592 15.3118C14.0738 15.4186 13.8344 15.6615 13.6933 15.9872C13.5523 16.3128 13.5213 16.6946 13.607 17.0486C13.6928 17.4026 13.8884 17.6999 14.1508 17.8752C14.4131 18.0505 14.7209 18.0894 15.0064 17.9834L22.8568 15.0566L23.0213 14.9954C23.0546 13.9443 23.2845 12.9172 23.6928 11.9952C23.6416 11.9666 23.5868 11.949 23.5308 11.943C23.4632 11.9349 23.3949 11.9434 23.3299 11.9681Z" fill="#22AA64"/>
<path d="M14.8512 18.6963C14.7321 18.6959 14.6162 18.6492 14.5197 18.5626C14.4232 18.476 14.3511 18.3541 14.3135 18.2139L13.7525 16.1144C13.7291 16.0267 13.7198 15.9342 13.7253 15.8421C13.7307 15.75 13.7506 15.6601 13.7841 15.5775C13.8175 15.495 13.8637 15.4214 13.9201 15.361C13.9764 15.3006 14.0418 15.2546 14.1125 15.2256L21.4138 12.2244C21.4844 12.1954 21.559 12.1839 21.6333 12.1906C21.7076 12.1973 21.7801 12.222 21.8466 12.2635C21.9132 12.3049 21.9725 12.3622 22.0212 12.4321C22.0699 12.502 22.107 12.5831 22.1304 12.6707L22.6914 14.7702C22.738 14.9429 22.7287 15.1313 22.6653 15.2956C22.6019 15.4599 22.4894 15.5871 22.3517 15.6503C22.3449 15.6534 22.3381 15.6564 22.3313 15.6592L15.0302 18.6602C14.9725 18.6841 14.912 18.6962 14.8512 18.6963Z" fill="#2F2E41"/>
<path d="M28.5249 8.23955C27.0513 8.24025 25.6357 8.95212 24.5778 10.2245C23.5199 11.4968 22.9027 13.2298 22.8568 15.0566C22.8552 15.128 22.8544 15.2003 22.8544 15.2727C22.8544 16.6637 23.1869 18.0235 23.81 19.18C24.4331 20.3366 25.3187 21.2381 26.3549 21.7704C27.391 22.3027 28.5312 22.442 29.6311 22.1706C30.7311 21.8993 31.7415 21.2294 32.5345 20.2458C33.3276 19.2622 33.8676 18.009 34.0864 16.6448C34.3052 15.2805 34.1929 13.8663 33.7637 12.5812C33.3345 11.2961 32.6077 10.1976 31.6752 9.42484C30.7427 8.65203 29.6464 8.23955 28.5249 8.23955ZM28.5249 22.1048C27.0644 22.1029 25.6642 21.3825 24.6315 20.1016C23.5988 18.8208 23.0179 17.0841 23.0164 15.2727C23.0164 15.1792 23.018 15.0868 23.0212 14.9954C23.0651 13.657 23.4252 12.3642 24.0567 11.2777C24.6882 10.1912 25.5633 9.35883 26.5732 8.8842C27.583 8.40958 28.6831 8.31359 29.7365 8.60819C30.79 8.90278 31.7504 9.57496 32.4984 10.5411C33.2463 11.5073 33.7488 12.7249 33.9433 14.0424C34.1378 15.3599 34.0157 16.7193 33.5923 17.9515C33.1689 19.1836 32.4628 20.2343 31.5619 20.9727C30.6609 21.7112 29.6048 22.1049 28.5249 22.1048Z" fill="#3F3D56"/>
<path d="M33.3043 15.2727C33.3043 16.8448 32.8008 18.3526 31.9045 19.4643C31.0082 20.576 29.7925 21.2006 28.5249 21.2006C27.2573 21.2006 26.0417 20.576 25.1453 19.4643C24.249 18.3526 23.7455 16.8448 23.7455 15.2727C23.7455 15.0848 23.7528 14.8999 23.7665 14.717C23.8817 13.1997 24.4636 11.7957 25.3915 10.7965C26.3193 9.79737 27.5217 9.2798 28.7491 9.35131C29.9765 9.42281 31.1346 10.0779 31.9828 11.1805C32.8311 12.2832 33.3043 13.7486 33.3043 15.2727Z" fill="#E6E6E6"/>
<path d="M29.9481 15.6665C29.8323 15.4776 29.6799 15.328 29.505 15.2315C29.2894 15.1187 29.0667 15.028 28.8391 14.9602V13.3466C29.1889 13.412 29.5169 13.5975 29.7861 13.8821L30.0502 13.1838C29.8983 13.016 29.7239 12.8824 29.535 12.789C29.3255 12.6838 29.1057 12.6138 28.8812 12.581V11.7631H28.2697V12.589C28.0335 12.6219 27.8057 12.7168 27.6014 12.8673C27.4168 13.0028 27.2614 13.1917 27.1485 13.4179C27.0408 13.6387 26.9849 13.8924 26.9873 14.1504C26.9768 14.43 27.0421 14.7059 27.1728 14.9341C27.2931 15.1316 27.452 15.2879 27.6345 15.3882C27.8536 15.5043 28.0802 15.5973 28.3118 15.6665V17.2128C27.899 17.1742 27.5058 16.9796 27.185 16.6552L26.9209 17.3545C27.1003 17.5384 27.3043 17.6819 27.5236 17.7785C27.7639 17.8851 28.015 17.95 28.2697 17.9714V18.7822H28.8813V17.9563C29.221 17.9103 29.5395 17.7291 29.7893 17.4399C29.8993 17.309 29.9863 17.1512 30.0445 16.9766C30.1028 16.8019 30.1312 16.6141 30.128 16.4251C30.1381 16.1544 30.0748 15.8873 29.9481 15.6665ZM28.3118 14.7894C28.1628 14.7333 28.0243 14.6411 27.9043 14.5181C27.8568 14.4656 27.8192 14.4008 27.7943 14.3282C27.7693 14.2556 27.7577 14.177 27.7601 14.0981C27.7557 13.9192 27.8087 13.7454 27.9075 13.6149C28.0171 13.4779 28.1584 13.3869 28.3118 13.3546V14.7894ZM29.2231 16.9275C29.1198 17.0589 28.9852 17.1459 28.8391 17.1756V15.8454C28.9788 15.8918 29.1094 15.9728 29.2231 16.0835C29.2662 16.1292 29.3005 16.1863 29.3234 16.2507C29.3462 16.315 29.3571 16.3849 29.3551 16.4552C29.3608 16.6277 29.3136 16.7964 29.2231 16.9275Z" fill="#22AA64"/>
<path d="M15.1116 27.2053C14.9863 27.205 14.8647 27.1535 14.7654 27.0588C14.6662 26.964 14.595 26.8313 14.5627 26.6812L14.2573 25.2475C14.2191 25.0673 14.2401 24.8756 14.3156 24.7145C14.3912 24.5535 14.5151 24.4361 14.6603 24.3883L24.2954 21.2305C24.4408 21.1834 24.5953 21.2097 24.7251 21.3036C24.8549 21.3974 24.9495 21.5512 24.9881 21.7314L25.2468 22.9461L25.1983 22.9507C22.7272 23.189 20.3629 24.3002 18.385 26.1529L18.371 26.1613L15.2554 27.1821C15.2085 27.1975 15.1601 27.2053 15.1116 27.2053Z" fill="#2F2E41"/>
<path d="M13.5158 34.2872C12.3856 34.0801 11.3046 33.5732 10.3466 32.801C9.87203 32.4187 9.43267 31.973 9.03643 31.4719C8.64534 30.9772 8.27119 30.4148 8.07748 29.7559C7.8911 29.1463 7.90071 28.4712 8.10431 27.8701C8.30514 27.2727 8.68877 26.7985 9.17108 26.5514C9.65628 26.3114 10.2425 26.2857 10.7147 26.5485C10.9397 26.6709 11.1344 26.8652 11.2789 27.1118C11.346 27.2254 11.3957 27.3534 11.4255 27.4893C11.4532 27.6125 11.4557 27.7423 11.4328 27.867C11.4051 27.9915 11.3563 28.1072 11.2896 28.2064C11.2229 28.3056 11.1399 28.3859 11.0461 28.442C10.8397 28.5734 10.6161 28.658 10.3857 28.6918C10.154 28.731 9.82122 28.7667 9.63496 28.536C9.59662 28.4904 9.56646 28.4352 9.54645 28.3742C9.53245 28.3274 9.52766 28.2772 9.53248 28.2277C9.52977 28.2495 9.54372 28.1802 9.54293 28.183C9.53998 28.1932 9.52722 28.2182 9.54536 28.1798C9.55102 28.1672 9.55733 28.155 9.56424 28.1434C9.55809 28.1532 9.54456 28.1697 9.56871 28.1414C9.58866 28.1144 9.61431 28.0947 9.64277 28.0847C9.65398 28.0807 9.66536 28.0775 9.6766 28.0736C9.70518 28.064 9.64812 28.0742 9.67735 28.073C9.68864 28.0726 9.70005 28.0729 9.7113 28.0723C9.73997 28.0707 9.68301 28.0626 9.71049 28.0712C9.72116 28.0745 9.73173 28.0777 9.74224 28.0818C9.76509 28.0908 9.72606 28.061 9.74155 28.0833C9.75969 28.1094 9.72249 28.0579 9.74312 28.0832C9.75338 28.0957 9.76306 28.1089 9.77209 28.1228C9.80786 28.1666 9.8561 28.1911 9.90636 28.1911C9.95662 28.1911 10.0049 28.1666 10.0406 28.1228C10.0752 28.0779 10.0945 28.0183 10.0945 27.9563C10.0945 27.8942 10.0752 27.8346 10.0406 27.7897C9.85339 27.5018 9.48354 27.573 9.29413 27.8163C9.05256 28.1266 9.14822 28.6184 9.3832 28.8891C9.6492 29.1957 10.0259 29.217 10.3681 29.1655C10.6573 29.1312 10.9391 29.0324 11.2 28.874C11.4592 28.716 11.662 28.4443 11.769 28.1116C11.8173 27.934 11.8346 27.7457 11.8199 27.5592C11.8051 27.3727 11.7586 27.1921 11.6834 27.0296C11.3813 26.3251 10.7558 25.964 10.1374 25.9014C9.8191 25.8705 9.49897 25.9182 9.19558 26.0417C8.8922 26.1652 8.61158 26.3622 8.36996 26.6211C7.90425 27.1411 7.61747 27.8632 7.56894 28.6381C7.51497 29.4415 7.76628 30.2217 8.13269 30.87C8.51627 31.5288 8.97401 32.1159 9.49194 32.6136C10.5045 33.6162 11.6922 34.311 12.96 34.6422C13.1108 34.6808 13.2624 34.7139 13.4149 34.7414C13.4634 34.756 13.5145 34.7471 13.5579 34.7165C13.6013 34.686 13.6337 34.6361 13.6484 34.5769C13.6614 34.5167 13.6548 34.4526 13.63 34.3984C13.6052 34.3441 13.5642 34.3042 13.5158 34.2872Z" fill="#3F3D56"/>
<path d="M31.6117 24.0514C29.9557 24.0224 28.305 24.0746 26.6594 24.2078C26.097 24.2533 25.6104 24.4999 25.6104 24.9143C25.6104 25.2608 26.0931 25.6667 26.6594 25.6209C28.3041 25.4876 29.9549 25.4355 31.6117 25.4645C32.9624 25.4881 32.9616 24.0751 31.6117 24.0514Z" fill="#CCCCCC"/>
<path d="M29.1642 25.3945C28.9852 25.3945 24.7812 25.3862 24.7812 24.666C24.7812 23.9458 28.9852 23.9375 29.1642 23.9375C29.3432 23.9375 33.5471 23.9458 33.5471 24.666C33.5471 25.3862 29.3432 25.3945 29.1642 25.3945ZM24.9456 24.666C25.0607 24.8843 26.606 25.1935 29.1642 25.1935C31.7224 25.1935 33.2677 24.8843 33.3828 24.666C33.2677 24.4477 31.7224 24.1384 29.1642 24.1384C26.606 24.1384 25.0607 24.4477 24.9456 24.666Z" fill="#3F3D56"/>
<path d="M42.5022 44.3287C43.4329 44.2966 44.5911 44.2566 45.4834 43.4481C45.7491 43.1975 45.9674 42.8779 46.123 42.5116C46.2786 42.1453 46.3678 41.7413 46.3842 41.3278C46.4024 40.6893 46.2165 40.132 45.8605 39.759C45.3945 39.2706 44.714 39.156 43.9806 39.4233L44.7404 32.5361L44.1826 32.4413L43.2893 40.5381L43.7551 40.273C44.2952 39.9658 45.0365 39.8095 45.4971 40.2923C45.6102 40.4185 45.6983 40.5754 45.7546 40.7507C45.8109 40.9261 45.8338 41.1151 45.8216 41.3032C45.8079 41.611 45.741 41.9115 45.6253 42.1843C45.5097 42.4571 45.348 42.6958 45.1513 42.8841C44.4569 43.5132 43.5337 43.5944 42.4866 43.6307L42.5022 44.3287Z" fill="#3F3D56"/>
<path d="M40.96 33.1301H37.9277V33.8284H40.96V33.1301Z" fill="#3F3D56"/>
<path d="M16.4838 30.417C16.3488 30.4164 16.2184 30.3563 16.1159 30.2474C16.0134 30.1384 15.9456 29.9878 15.9245 29.8224L15.7394 28.3574C15.7163 28.1731 15.7531 27.985 15.8416 27.8343C15.9302 27.6836 16.0634 27.5827 16.2119 27.5536L26.0568 25.6404C26.2053 25.6117 26.357 25.6573 26.4785 25.7672C26.5999 25.877 26.6813 26.0421 26.7048 26.2263L26.8898 27.6914C26.913 27.8757 26.8762 28.0638 26.7876 28.2145C26.6991 28.3652 26.5659 28.4661 26.4174 28.4952L16.5725 30.4084C16.5431 30.4141 16.5135 30.4169 16.4838 30.417Z" fill="#2F2E41"/>
<path d="M12.4094 13.2478C14.6911 13.2478 16.5408 10.9537 16.5408 8.12371C16.5408 5.29374 14.6911 2.99959 12.4094 2.99959C10.1278 2.99959 8.27808 5.29374 8.27808 8.12371C8.27808 10.9537 10.1278 13.2478 12.4094 13.2478Z" fill="#22AA64"/>
<path d="M14.7486 9.44956C14.8806 9.39228 15.0012 9.30059 15.1023 9.18068C15.1692 9.09518 15.2202 8.99258 15.2518 8.88006C15.2833 8.76754 15.2947 8.64783 15.285 8.52931C15.2794 8.44483 15.2581 8.36311 15.2228 8.29054C15.1875 8.21796 15.1391 8.15649 15.0815 8.11093C14.932 7.99689 14.7344 8.00119 14.5349 8.11588L14.5119 6.11568L14.3499 6.11854L14.377 8.46999L14.5003 8.36967C14.6433 8.25354 14.8488 8.16932 14.9966 8.2821C15.0332 8.31196 15.0637 8.35187 15.0858 8.39874C15.1079 8.44561 15.121 8.49817 15.124 8.55233C15.1308 8.64062 15.1222 8.72971 15.0988 8.81351C15.0754 8.89731 15.0377 8.97387 14.9882 9.03798C14.8126 9.25411 14.5527 9.32653 14.256 9.39276L14.2847 9.59051C14.4424 9.5608 14.5977 9.51363 14.7486 9.44956Z" fill="#2F2E41"/>
<path d="M16.1801 5.97528L15.3174 6.13733L15.3416 6.33599L16.2044 6.17393L16.1801 5.97528Z" fill="#2F2E41"/>
<path d="M13.4569 6.48669L12.5941 6.64874L12.6184 6.8474L13.4811 6.68534L13.4569 6.48669Z" fill="#2F2E41"/>
<path d="M15.1396 30.3274C14.991 30.327 14.8461 30.2705 14.724 30.1654C14.602 30.0603 14.5086 29.9116 14.4564 29.7391L11.6079 20.2777C11.2597 19.1173 11.2969 17.833 11.7113 16.7066C12.1256 15.5801 12.8833 14.7036 13.8181 14.2692L16.1342 13.1965C16.2238 13.1547 16.3191 13.1354 16.4148 13.1395C16.5104 13.1436 16.6044 13.1711 16.6914 13.2205C16.7782 13.2686 16.8564 13.3377 16.9214 13.4237C16.9865 13.5097 17.037 13.6109 17.0702 13.7214L22.3467 26.078C22.3809 26.1894 22.3971 26.3081 22.3942 26.4273C22.3913 26.5465 22.3695 26.6638 22.3299 26.7725C22.2903 26.8812 22.2338 26.9791 22.1636 27.0606C22.0934 27.1421 22.0109 27.2055 21.9209 27.2473L15.3944 30.2699C15.3129 30.3078 15.2266 30.3273 15.1396 30.3274Z" fill="#2F2E41"/>
<path d="M15.4315 13.5219L20.6669 22.2054L17.1244 13.6131C17.0951 13.5128 17.0502 13.4207 16.9922 13.3419C16.9343 13.2632 16.8644 13.1994 16.7865 13.1542C16.7087 13.109 16.6244 13.0832 16.5385 13.0784C16.4526 13.0736 16.3668 13.0898 16.286 13.1262L15.4315 13.5219Z" fill="#E6E6E6"/>
<path d="M23.7212 20.1165L14.3734 19.3696C14.226 19.3579 14.082 19.3102 13.9495 19.2294C13.817 19.1486 13.6986 19.0362 13.6011 18.8987C13.5037 18.7611 13.429 18.6011 13.3814 18.4277C13.3337 18.2544 13.3141 18.0711 13.3236 17.8884C13.3331 17.7056 13.3715 17.527 13.4367 17.3626C13.5018 17.1983 13.5924 17.0515 13.7033 16.9306C13.8142 16.8097 13.9433 16.7171 14.083 16.658C14.2228 16.5989 14.3705 16.5746 14.5179 16.5864L23.8657 17.3332C23.9347 17.3387 24.0022 17.361 24.0642 17.3988C24.1263 17.4367 24.1817 17.4893 24.2274 17.5537C24.273 17.6181 24.308 17.693 24.3303 17.7742C24.3526 17.8554 24.3618 17.9412 24.3574 18.0268L24.2805 19.5067C24.2715 19.6796 24.2076 19.8409 24.1027 19.9552C23.9978 20.0696 23.8606 20.1276 23.7212 20.1165Z" fill="#22AA64"/>
<path d="M21.2233 20.5952C21.2109 20.5952 21.1986 20.5947 21.1862 20.5938L13.5102 19.9805C13.4359 19.9746 13.3633 19.9506 13.2964 19.9098C13.2296 19.8691 13.1699 19.8124 13.1208 19.743C13.0716 19.6737 13.0339 19.593 13.0099 19.5055C12.9859 19.4181 12.976 19.3257 12.9808 19.2335L13.112 16.7058C13.1168 16.6136 13.1362 16.5235 13.1691 16.4406C13.2019 16.3577 13.2476 16.2837 13.3036 16.2227C13.3595 16.1618 13.4246 16.1151 13.4951 16.0853C13.5656 16.0555 13.6401 16.0432 13.7144 16.0492L21.3903 16.6624C21.5403 16.6746 21.6803 16.76 21.7796 16.9001C21.8788 17.0401 21.9292 17.2233 21.9197 17.4094L21.7885 19.9372C21.7813 20.0726 21.7427 20.2026 21.6773 20.3115C21.612 20.4204 21.5227 20.5036 21.4202 20.5511C21.3572 20.5804 21.2905 20.5953 21.2233 20.5952Z" fill="#2F2E41"/>
<path d="M12.3621 4.71625C12.9056 4.13649 13.6519 4.65513 14.2752 4.56434C14.8715 4.47747 15.3424 3.81405 15.4627 3.10925C15.603 2.28698 15.2589 1.46318 14.7517 0.950509C14.1962 0.389007 13.4595 0.227814 12.7613 0.331696C11.9612 0.450756 11.2294 0.913369 10.5727 1.47292C9.93894 1.9963 9.35609 2.60888 8.83582 3.29843C8.36994 3.9366 7.97522 4.69729 7.84917 5.55604C7.73463 6.33646 7.82209 7.20129 8.19406 7.86241C8.39131 8.20127 8.65563 8.47136 8.96154 8.64663C9.2805 8.84089 9.62074 8.97977 9.92975 9.1994C10.397 9.5315 10.8511 10.2201 10.7047 10.9367C10.6733 11.0932 10.6114 11.2378 10.5244 11.3577C10.4199 11.5016 10.2313 11.3114 10.3361 11.1671C10.5202 10.9136 10.513 10.5755 10.4148 10.2728C10.2982 9.93177 10.0916 9.64999 9.82887 9.47363C9.50541 9.24426 9.14829 9.10267 8.81677 8.89374C8.49944 8.70289 8.224 8.41977 8.01387 8.06848C7.61708 7.38456 7.49839 6.49448 7.58838 5.67109C7.68576 4.78005 8.05487 3.97036 8.51758 3.29184C9.02114 2.55342 9.63969 1.92837 10.2716 1.36684C10.9496 0.76432 11.6987 0.254929 12.5276 0.0706908C13.2462 -0.0890151 14.025 0.00930992 14.6534 0.494981C15.2399 0.948325 15.6896 1.72816 15.7344 2.59956C15.7504 2.99604 15.681 3.39067 15.5333 3.74283C15.3856 4.095 15.1648 4.39197 14.8938 4.6032C14.6158 4.80959 14.2925 4.90249 13.9695 4.86878C13.6243 4.84137 13.2788 4.71026 12.9313 4.74666C12.7741 4.7585 12.6243 4.83357 12.5046 4.96052C12.3858 5.08719 12.2443 4.84188 12.3621 4.71625Z" fill="#2F2E41"/>
<path d="M59.9035 60H0.0964191C0.0708864 59.9999 0.0464252 59.9873 0.0283969 59.9648C0.0103686 59.9424 0.000244141 59.912 0.000244141 59.8804C0.000244141 59.8487 0.0103686 59.8183 0.0283969 59.7959C0.0464252 59.7735 0.0708864 59.7608 0.0964191 59.7607H59.9035C59.9291 59.7607 59.9536 59.7733 59.9717 59.7958C59.9898 59.8182 60 59.8486 60 59.8804C60 59.9121 59.9898 59.9425 59.9717 59.965C59.9536 59.9874 59.9291 60 59.9035 60Z" fill="#3F3D56"/>
</g>
<defs>
<clipPath id="clip0_438_2416">
<rect width="60" height="60" fill="white"/>
</clipPath>
</defs>
</svg>
