<svg width="60" height="60" viewBox="0 0 60 60" fill="none" xmlns="http://www.w3.org/2000/svg">
<g clip-path="url(#clip0_412_2383)">
<path d="M42.049 26.2728C45.6548 26.2728 48.5779 23.5688 48.5779 20.2333C48.5779 16.8979 45.6548 14.1939 42.049 14.1939C38.4432 14.1939 35.5201 16.8979 35.5201 20.2333C35.5201 23.5688 38.4432 26.2728 42.049 26.2728Z" fill="#FF6584"/>
<path d="M59.9579 24.7363C59.9723 24.7338 59.9832 24.7245 59.9999 24.7269C59.9926 24.7008 59.983 24.6752 59.9713 24.6505C59.9505 24.6767 59.9293 24.7034 59.9108 24.7268L59.9579 24.7363Z" fill="white"/>
<path d="M16.1679 34.5275C16.206 35.8451 16.4446 37.1512 16.8766 38.4073C16.8865 38.4365 16.8968 38.4652 16.9072 38.4943H19.5522C19.5494 38.4682 19.5466 38.4391 19.5437 38.4073C19.3674 36.5318 18.3506 25.1168 19.5663 23.1647C19.46 23.3231 15.9628 28.5681 16.1679 34.5275Z" fill="#E6E6E6"/>
<path d="M16.3663 38.4073C16.3884 38.4365 16.4115 38.4656 16.435 38.4943H18.4192C18.4042 38.4695 18.3868 38.4404 18.3666 38.4073C18.0388 37.86 17.0685 36.2238 16.1679 34.5275C15.2 32.7046 14.312 30.8126 14.3868 30.1278C14.3637 30.2823 13.694 34.9904 16.3663 38.4073Z" fill="#E6E6E6"/>
<path d="M36.9854 38.7211C36.9522 39.8698 36.7442 41.0085 36.3675 42.1036C36.3589 42.129 36.3499 42.154 36.3409 42.1794H34.0349C34.0373 42.1567 34.0398 42.1312 34.0423 42.1036C34.196 40.4685 35.0825 30.5167 34.0226 28.8148C34.1152 28.9529 37.1642 33.5256 36.9854 38.7211Z" fill="#E6E6E6"/>
<path d="M36.8123 42.1036C36.7931 42.129 36.773 42.1544 36.7525 42.1794H35.0226C35.0357 42.1578 35.0509 42.1324 35.0685 42.1036C35.3543 41.6264 36.2002 40.1999 36.9854 38.7211C37.8292 37.1319 38.6033 35.4823 38.5381 34.8853C38.5582 35.02 39.1421 39.1246 36.8123 42.1036Z" fill="#E6E6E6"/>
<path d="M10.6194 4.9021L11.6947 4.10648C10.8593 4.02122 10.5161 4.44268 10.3756 4.77627C9.72295 4.52558 9.01245 4.85412 9.01245 4.85412L11.1641 5.57668C11.0555 5.30849 10.8666 5.07448 10.6194 4.9021Z" fill="#3F3D56"/>
<path d="M43.0088 0.80676L44.0841 0.0111423C43.2487 -0.0741169 42.9055 0.347343 42.765 0.680932C42.1123 0.430241 41.4019 0.758784 41.4019 0.758784L43.5535 1.48134C43.4449 1.21315 43.256 0.979146 43.0088 0.80676Z" fill="#3F3D56"/>
<path d="M58.8309 32.2696C58.8309 32.9289 58.8061 33.5827 58.7564 34.2312C58.3734 39.3472 56.4557 44.263 53.2189 48.4264C52.7959 48.9725 52.3517 49.5033 51.8864 50.0188C50.6808 51.3563 49.3422 52.5863 47.8882 53.6926L41.5148 50.2331L37.7041 42.0059C37.7041 42.0059 43.3897 31.3569 58.8208 31.55C58.8273 31.789 58.8306 32.0289 58.8309 32.2696Z" fill="#3F3D56"/>
<path d="M58.7565 34.2312C58.4633 38.0542 57.3166 41.7795 55.3889 45.172C53.4611 48.5646 50.7942 51.5506 47.5563 53.9418L41.6352 50.7282L38.2559 43.4315C38.2559 43.4315 43.7318 33.1756 58.7565 34.2312Z" fill="#22AA64"/>
<path d="M53.2188 48.4264C52.7958 48.9725 52.3517 49.5033 51.8864 50.0188C48.7686 53.4839 44.7847 56.194 40.2797 57.9142C39.3675 58.2621 38.4339 58.5689 37.4788 58.8346C30.5822 60.5312 23.2757 60.102 16.6664 57.6123C10.1299 54.9135 4.84777 50.1474 1.76869 44.1699C1.35489 43.3652 0.982773 42.5401 0.652344 41.6946C6.41521 37.7893 17.7708 32.1973 30.1471 37.6311C33.5706 39.1342 36.6276 40.5043 39.3179 41.7413C46.1447 44.8716 50.6882 47.1283 53.2188 48.4264Z" fill="#3F3D56"/>
<path d="M51.8864 50.0187C48.6634 53.5918 44.5209 56.3577 39.8398 58.062C35.1588 59.7662 30.0895 60.3542 25.0985 59.7717C20.1075 59.1893 15.355 57.4551 11.2782 54.7287C7.2014 52.0024 3.93128 48.3714 1.76868 44.1699C6.58164 40.6491 17.6825 34.3222 29.8648 39.6701C32.9978 41.0455 35.7947 42.2993 38.2558 43.4315C45.4302 46.7209 49.8496 48.9563 51.8864 50.0187Z" fill="#22AA64"/>
<path d="M43.3915 56.5269C42.3836 57.0437 41.3447 57.5069 40.2797 57.9142C36.6556 59.2958 32.7731 60.0045 28.8533 60C24.215 59.9983 19.6403 59.0019 15.4884 57.0891C11.3366 55.1763 7.72062 52.3992 4.92456 48.9759C12.0842 48.2775 31.8749 47.3359 43.3915 56.5269Z" fill="#3F3D56"/>
<path d="M40.2798 57.9142C34.6601 60.0517 28.4714 60.5609 22.5321 59.3744C16.5928 58.1878 11.1828 55.3615 7.01758 51.2692C9.62176 50.9153 30.0672 48.4851 40.2798 57.9142Z" fill="#22AA64"/>
<path d="M53.8027 16.8921V16.8929C32.3972 2.25285 7.87266 12.5573 7.68323 12.6364V12.6356C10.463 10.0645 13.7637 8.02597 17.3964 6.63669C21.0291 5.24741 24.9224 4.53469 28.8533 4.53933C39.2599 4.53933 48.4279 9.44487 53.8027 16.8921Z" fill="#E6E6E6"/>
<path d="M9.40008 32.8072C13.0212 32.2033 14.8768 26.1731 13.5446 19.3385C12.2125 12.5038 8.19711 7.45285 4.57601 8.05678C0.954898 8.66071 -0.900685 14.6909 0.431446 21.5255C1.76358 28.3602 5.77897 33.4112 9.40008 32.8072Z" fill="#3F3D56"/>
<path d="M10.3307 40.7892C10.1161 25.7769 4.68611 11.6888 4.63131 11.5484L4.13611 11.7136C4.19065 11.8534 9.59079 25.8677 9.80435 40.7958L10.3307 40.7892Z" fill="#22AA64"/>
<path d="M0.696927 18.7337L0.534912 19.1971L7.03562 21.1418L7.19764 20.6784L0.696927 18.7337Z" fill="#22AA64"/>
<path d="M12.9254 18.2117L7.56921 22.1356L7.89611 22.5174L13.2523 18.5935L12.9254 18.2117Z" fill="#22AA64"/>
<path d="M26.8118 30.6429C30.7933 30.6429 34.021 24.5508 34.021 17.0359C34.021 9.52092 30.7933 3.42883 26.8118 3.42883C22.8302 3.42883 19.6025 9.52092 19.6025 17.0359C19.6025 24.5508 22.8302 30.6429 26.8118 30.6429Z" fill="#3F3D56"/>
<path d="M26.146 39.3084C29.0334 23.2834 26.1751 7.31627 26.1459 7.15698L25.5842 7.24499C25.6133 7.4035 28.4552 23.2868 25.5841 39.222L26.146 39.3084Z" fill="#22AA64"/>
<path d="M20.4648 14.11L20.196 14.5747L26.7151 17.8003L26.9839 17.3355L20.4648 14.11Z" fill="#22AA64"/>
<path d="M33.5954 15.7257L27.077 18.9531L27.3459 19.4178L33.8642 16.1904L33.5954 15.7257Z" fill="#22AA64"/>
<path d="M58.1265 26.266C55.4814 24.8922 52.7179 23.7235 49.8643 22.7716C34.0856 17.4901 18.4393 19.5256 12.3151 27.0843C17.0811 17.8244 34.0874 14.9127 51.2491 20.6569C53.2465 21.3249 55.2013 22.0974 57.1039 22.9706C57.5185 24.0484 57.86 25.1489 58.1265 26.266Z" fill="#E6E6E6"/>
<path d="M36.8164 11.365L37.8918 10.5694C37.0564 10.4841 36.7131 10.9056 36.5726 11.2392C35.92 10.9885 35.2095 11.317 35.2095 11.317L37.3611 12.0396C37.2525 11.7714 37.0636 11.5374 36.8164 11.365Z" fill="#3F3D56"/>
</g>
<defs>
<clipPath id="clip0_412_2383">
<rect width="60" height="60" fill="white"/>
</clipPath>
</defs>
</svg>
